<?xml version="1.0" encoding="UTF-8"?>
<!DOCTYPE svg PUBLIC "-//W3C//DTD SVG 1.1//EN" "http://www.w3.org/Graphics/SVG/1.1/DTD/svg11.dtd">
<svg xmlns="http://www.w3.org/2000/svg" version="1.1" width="2961px" height="933px" style="shape-rendering:geometricPrecision; text-rendering:geometricPrecision; image-rendering:optimizeQuality; fill-rule:evenodd; clip-rule:evenodd" xmlns:xlink="http://www.w3.org/1999/xlink">
<g><path style="opacity:0.991" fill="#f26f20" d="M 829.5,-0.5 C 830.833,-0.5 832.167,-0.5 833.5,-0.5C 842.529,0.433415 850.029,4.43341 856,11.5C 872.049,38.2657 887.049,65.5991 901,93.5C 902.936,103.418 900.936,112.418 895,120.5C 860.749,161.425 851.749,207.425 868,258.5C 891.934,316.559 935.434,347.226 998.5,350.5C 1008.39,350.061 1018.22,349.061 1028,347.5C 1039.66,347.826 1048.66,352.826 1055,362.5C 1068.67,386.833 1082.33,411.167 1096,435.5C 1101.92,454.5 1096.08,468.667 1078.5,478C 893.167,582.667 707.833,687.333 522.5,792C 500.132,797.903 485.965,789.736 480,767.5C 479.333,737.5 479.333,707.5 480,677.5C 482.833,662.667 491.667,653.833 506.5,651C 552.167,650.667 597.833,650.333 643.5,650C 719.739,644.333 775.906,608.166 812,541.5C 841.495,476.36 840.495,411.694 809,347.5C 777.021,291.22 728.855,257.72 664.5,247C 654.893,245.424 645.226,244.424 635.5,244C 590.5,243.667 545.5,243.333 500.5,243C 480.715,234.695 474.215,220.195 481,199.5C 484.5,193.333 489.333,188.5 495.5,185C 602.423,125.067 709.09,64.7336 815.5,4C 820.127,1.95607 824.794,0.456073 829.5,-0.5 Z"/></g>
<g><path style="opacity:0.992" fill="#f26f20" d="M 1342.5,226.5 C 1403.17,226.333 1463.83,226.5 1524.5,227C 1610.57,230.273 1657.4,274.773 1665,360.5C 1668.42,395.345 1663.75,429.012 1651,461.5C 1634.1,498.225 1605.94,521.225 1566.5,530.5C 1560.23,531.988 1553.89,533.155 1547.5,534C 1497.85,535.447 1448.19,535.947 1398.5,535.5C 1398.5,592.5 1398.5,649.5 1398.5,706.5C 1365.17,706.5 1331.83,706.5 1298.5,706.5C 1298.33,560.5 1298.5,414.5 1299,268.5C 1304.57,245.094 1319.07,231.094 1342.5,226.5 Z M 1398.5,311.5 C 1436.17,311.333 1473.83,311.5 1511.5,312C 1540.57,314.244 1558.4,329.411 1565,357.5C 1569.34,378.813 1567.34,399.479 1559,419.5C 1549.81,434.184 1536.64,443.017 1519.5,446C 1513.87,446.966 1508.2,447.633 1502.5,448C 1467.83,448.5 1433.17,448.667 1398.5,448.5C 1398.5,402.833 1398.5,357.167 1398.5,311.5 Z"/></g>
<g><path style="opacity:0.976" fill="#f26f20" d="M 1920.5,226.5 C 1939.5,226.333 1958.5,226.5 1977.5,227C 2001.58,231.75 2015.42,246.25 2019,270.5C 2019.5,281.828 2019.67,293.162 2019.5,304.5C 1986.5,304.5 1953.5,304.5 1920.5,304.5C 1920.5,278.5 1920.5,252.5 1920.5,226.5 Z"/></g>
<g><path style="opacity:0.991" fill="#b61f24" d="M 271.5,932.5 C 268.167,932.5 264.833,932.5 261.5,932.5C 253.254,930.614 246.42,926.281 241,919.5C 225.797,893.091 211.13,866.424 197,839.5C 195.945,832.314 196.612,825.314 199,818.5C 204.667,810.833 210.333,803.167 216,795.5C 244.353,747.713 245.353,699.379 219,650.5C 195.123,611.998 160.623,589.498 115.5,583C 100.283,582.116 85.116,582.616 70,584.5C 56.8863,584.107 47.2196,578.107 41,566.5C 29.7337,545.577 18.067,524.91 6,504.5C 3.50565,499.853 1.33898,495.186 -0.5,490.5C -0.5,486.167 -0.5,481.833 -0.5,477.5C 1.98231,469.505 6.64898,463.005 13.5,458C 103.5,407 193.5,356 283.5,305C 300.354,298.17 314.187,302.004 325,316.5C 327.353,321.226 328.686,326.226 329,331.5C 329.667,515.833 329.667,700.167 329,884.5C 328.674,894.652 324.508,902.819 316.5,909C 307.167,914.333 297.833,919.667 288.5,925C 282.954,928.114 277.287,930.614 271.5,932.5 Z"/></g>
<g><path style="opacity:0.991" fill="#f26f20" d="M 2529.5,327.5 C 2560.88,325.042 2591.55,328.542 2621.5,338C 2659.85,352.021 2687.69,377.521 2705,414.5C 2722.27,456.864 2728.77,500.864 2724.5,546.5C 2643.83,546.167 2563.16,546.5 2482.5,547.5C 2482.9,568.007 2488.4,587.007 2499,604.5C 2513.7,623.476 2533.2,632.809 2557.5,632.5C 2573.6,632.225 2588.6,628.058 2602.5,620C 2609.53,613.303 2616.2,606.303 2622.5,599C 2626.68,595.91 2631.35,593.91 2636.5,593C 2664.13,591.562 2691.8,591.062 2719.5,591.5C 2705.06,649.446 2669.39,687.612 2612.5,706C 2585.6,713.083 2558.26,715.416 2530.5,713C 2461.33,704.827 2415.83,667.66 2394,601.5C 2378.16,543.53 2379.16,485.864 2397,428.5C 2421.05,368.398 2465.21,334.731 2529.5,327.5 Z M 2548.5,408.5 C 2587.64,406.784 2611.8,424.784 2621,462.5C 2622.54,469.421 2623.37,476.421 2623.5,483.5C 2576.5,483.833 2529.5,483.5 2482.5,482.5C 2482.95,454.095 2494.95,432.261 2518.5,417C 2528.14,412.391 2538.14,409.557 2548.5,408.5 Z"/></g>
<g><path style="opacity:0.984" fill="#b61f24" d="M 568.5,330.5 C 581.726,353.944 594.726,377.611 607.5,401.5C 634.439,406.879 661.439,412.046 688.5,417C 669.667,436.5 650.833,456 632,475.5C 635.413,502.468 638.913,529.468 642.5,556.5C 617.822,545.323 593.322,533.657 569,521.5C 544.772,533.03 520.606,544.697 496.5,556.5C 496.167,555.333 495.833,554.167 495.5,553C 499.376,527.154 502.876,501.321 506,475.5C 487.167,456 468.333,436.5 449.5,417C 476.561,412.046 503.561,406.879 530.5,401.5C 542.925,377.647 555.591,353.981 568.5,330.5 Z"/></g>
<g><path style="opacity:0.989" fill="#f26f20" d="M 1859.5,335.5 C 1870.5,335.5 1881.5,335.5 1892.5,335.5C 1892.5,368.833 1892.5,402.167 1892.5,435.5C 1877.16,435.333 1861.83,435.5 1846.5,436C 1806.07,439.768 1784.57,461.934 1782,502.5C 1781.5,570.499 1781.33,638.499 1781.5,706.5C 1748.5,706.5 1715.5,706.5 1682.5,706.5C 1682.06,637.154 1682.56,567.82 1684,498.5C 1691.66,409.174 1739.5,356.341 1827.5,340C 1838.27,338.156 1848.94,336.656 1859.5,335.5 Z"/></g>
<g><path style="opacity:0.987" fill="#f26f20" d="M 1920.5,335.5 C 1940.17,335.333 1959.84,335.5 1979.5,336C 1997.85,340.016 2010.35,350.85 2017,368.5C 2017.94,372.114 2018.61,375.781 2019,379.5C 2019.5,488.499 2019.67,597.499 2019.5,706.5C 1986.5,706.5 1953.5,706.5 1920.5,706.5C 1920.5,582.833 1920.5,459.167 1920.5,335.5 Z"/></g>
<g><path style="opacity:0.983" fill="#b61f24" d="M 2065.5,335.5 C 2135.84,335.167 2206.17,335.5 2276.5,336.5C 2253.35,362.15 2230.02,387.65 2206.5,413C 2190.5,413.167 2174.5,413.333 2158.5,413.5C 2139.8,413.611 2121.14,413.111 2102.5,412C 2084.61,407.778 2072.78,396.945 2067,379.5C 2065.57,364.892 2065.07,350.225 2065.5,335.5 Z"/></g>
<g><path style="opacity:0.991" fill="#f26f20" d="M 2325.5,335.5 C 2340.5,335.5 2355.5,335.5 2370.5,335.5C 2370.67,362.169 2370.5,388.835 2370,415.5C 2304.83,485.333 2239.67,555.167 2174.5,625C 2242.17,625.5 2309.83,625.667 2377.5,625.5C 2377.5,652.5 2377.5,679.5 2377.5,706.5C 2269.83,706.5 2162.17,706.5 2054.5,706.5C 2054.33,681.498 2054.5,656.498 2055,631.5C 2145,532.663 2235.17,433.997 2325.5,335.5 Z"/></g>
<g><path style="opacity:0.992" fill="#f26f20" d="M 2960.5,335.5 C 2960.5,368.833 2960.5,402.167 2960.5,435.5C 2944.83,435.333 2929.16,435.5 2913.5,436C 2871.42,441.089 2849.92,464.922 2849,507.5C 2848.5,573.832 2848.33,640.166 2848.5,706.5C 2815.83,706.5 2783.17,706.5 2750.5,706.5C 2750.33,638.833 2750.5,571.166 2751,503.5C 2757.96,409.55 2807.79,354.716 2900.5,339C 2920.39,336.013 2940.39,334.846 2960.5,335.5 Z"/></g>
</svg>
