<?xml version="1.0" encoding="UTF-8"?>
<!DOCTYPE svg PUBLIC "-//W3C//DTD SVG 1.1//EN" "http://www.w3.org/Graphics/SVG/1.1/DTD/svg11.dtd">
<svg xmlns="http://www.w3.org/2000/svg" version="1.1" width="2961px" height="933px" style="shape-rendering:geometricPrecision; text-rendering:geometricPrecision; image-rendering:optimizeQuality; fill-rule:evenodd; clip-rule:evenodd" xmlns:xlink="http://www.w3.org/1999/xlink">
<g><path style="opacity:1" fill="#fefefe" d="M -0.5,-0.5 C 986.5,-0.5 1973.5,-0.5 2960.5,-0.5C 2960.5,310.5 2960.5,621.5 2960.5,932.5C 2063.5,932.5 1166.5,932.5 269.5,932.5C 269.5,932.167 269.5,931.833 269.5,931.5C 272.216,931.322 274.883,930.822 277.5,930C 290.167,923 302.833,916 315.5,909C 321.795,904.234 325.962,898.068 328,890.5C 328.667,702.167 328.667,513.833 328,325.5C 320.791,305.811 306.958,298.644 286.5,304C 196.995,354.92 107.329,405.587 17.5,456C 8.28045,461.04 2.28045,468.54 -0.5,478.5C -0.5,318.833 -0.5,159.167 -0.5,-0.5 Z"/></g>
<g><path style="opacity:1" fill="#f36f21" d="M 824.5,0.5 C 837.125,-0.905206 847.625,3.09479 856,12.5C 871.775,39.0484 886.775,66.0484 901,93.5C 902.035,100.78 901.035,107.78 898,114.5C 854.635,165.706 847.968,221.373 878,281.5C 905.483,325.918 945.483,348.918 998,350.5C 1010.16,349.481 1022.33,348.981 1034.5,349C 1043.49,350.747 1050.32,355.581 1055,363.5C 1068.41,387.995 1082.08,412.328 1096,436.5C 1100.64,452.582 1096.14,465.415 1082.5,475C 894.792,581.521 706.792,687.521 518.5,793C 499.274,795.756 486.774,787.923 481,769.5C 480.333,737.5 480.333,705.5 481,673.5C 484.833,663 492,655.833 502.5,652C 546.833,651.667 591.167,651.333 635.5,651C 685.407,649.263 729.407,632.596 767.5,601C 816.502,553.765 838.335,495.931 833,427.5C 824.435,347.638 783.601,291.471 710.5,259C 687.907,250.518 664.573,245.518 640.5,244C 594.167,243.667 547.833,243.333 501.5,243C 488.275,239.061 480.775,230.228 479,216.5C 478.084,204.826 482.251,195.326 491.5,188C 602.313,124.933 713.313,62.4331 824.5,0.5 Z"/></g>
<g><path style="opacity:1" fill="#f36f21" d="M 1337.5,227.5 C 1403.5,227.333 1469.5,227.5 1535.5,228C 1611.82,234.99 1654.66,276.49 1664,352.5C 1668.46,388.502 1664.46,423.502 1652,457.5C 1635.43,497.902 1605.6,522.402 1562.5,531C 1556.48,531.871 1550.48,532.871 1544.5,534C 1495.51,535.413 1446.51,535.913 1397.5,535.5C 1397.5,592.5 1397.5,649.5 1397.5,706.5C 1364.5,706.5 1331.5,706.5 1298.5,706.5C 1298.33,561.166 1298.5,415.833 1299,270.5C 1303.62,248.721 1316.45,234.388 1337.5,227.5 Z"/></g>
<g><path style="opacity:1" fill="#f36f21" d="M 1921.5,227.5 C 1941.17,227.333 1960.84,227.5 1980.5,228C 1998.29,232.454 2010.46,243.288 2017,260.5C 2018.43,274.774 2018.93,289.108 2018.5,303.5C 1986.17,303.5 1953.83,303.5 1921.5,303.5C 1921.5,278.167 1921.5,252.833 1921.5,227.5 Z"/></g>
<g><path style="opacity:1" fill="#b71f25" d="M 269.5,931.5 C 259.033,932.517 250.2,929.184 243,921.5C 229.667,898.167 216.333,874.833 203,851.5C 196.27,841.455 194.937,830.789 199,819.5C 204.667,811.833 210.333,804.167 216,796.5C 245.172,747.204 245.838,697.537 218,647.5C 193.029,608.919 157.529,587.086 111.5,582C 95.411,581.347 79.411,582.014 63.5,584C 55.3418,581.834 48.8418,577.334 44,570.5C 31.5864,548.004 18.9198,525.671 6,503.5C 3.22592,498.633 1.05926,493.633 -0.5,488.5C -0.5,485.167 -0.5,481.833 -0.5,478.5C 2.28045,468.54 8.28045,461.04 17.5,456C 107.329,405.587 196.995,354.92 286.5,304C 306.958,298.644 320.791,305.811 328,325.5C 328.667,513.833 328.667,702.167 328,890.5C 325.962,898.068 321.795,904.234 315.5,909C 302.833,916 290.167,923 277.5,930C 274.883,930.822 272.216,931.322 269.5,931.5 Z"/></g>
<g><path style="opacity:1" fill="#f9b68f" d="M 1509.5,311.5 C 1472.5,311.5 1435.5,311.5 1398.5,311.5C 1398.5,357.167 1398.5,402.833 1398.5,448.5C 1397.5,402.67 1397.17,356.67 1397.5,310.5C 1435,310.168 1472.34,310.502 1509.5,311.5 Z"/></g>
<g><path style="opacity:1" fill="#fffefe" d="M 1509.5,311.5 C 1527.61,312.474 1542.77,319.474 1555,332.5C 1565.92,350.318 1569.92,369.651 1567,390.5C 1564.82,423.014 1547.65,441.848 1515.5,447C 1476.53,448.444 1437.53,448.944 1398.5,448.5C 1398.5,402.833 1398.5,357.167 1398.5,311.5C 1435.5,311.5 1472.5,311.5 1509.5,311.5 Z"/></g>
<g><path style="opacity:1" fill="#f36f21" d="M 2643.5,592.5 C 2668.86,591.843 2693.86,592.509 2718.5,594.5C 2702.23,654.601 2663.9,692.434 2603.5,708C 2571.2,714.823 2538.87,715.156 2506.5,709C 2457.78,696.393 2422.94,667.226 2402,621.5C 2384.47,574.242 2379.13,525.576 2386,475.5C 2391.04,430.252 2410.21,392.419 2443.5,362C 2479.84,334.659 2520.84,323.325 2566.5,328C 2649.93,333.432 2700.76,376.932 2719,458.5C 2724.21,486.94 2725.87,515.607 2724,544.5C 2643.71,546.495 2563.21,547.162 2482.5,546.5C 2482.83,564.297 2486.66,581.297 2494,597.5C 2507.53,621.16 2528.03,632.826 2555.5,632.5C 2572.82,633.333 2588.82,629.167 2603.5,620C 2608.41,615.756 2612.58,610.923 2616,605.5C 2623.31,597.263 2632.47,592.929 2643.5,592.5 Z"/></g>
<g><path style="opacity:1" fill="#b72025" d="M 568.5,330.5 C 581.425,354.846 594.758,379.012 608.5,403C 634.887,407.388 661.22,412.055 687.5,417C 669,436.167 650.5,455.333 632,474.5C 634.459,501.094 637.959,527.594 642.5,554C 642.167,554.833 641.833,555.667 641.5,556.5C 617.535,544.349 593.368,532.682 569,521.5C 544.42,532.623 520.087,544.29 496,556.5C 499.545,529.221 502.879,501.888 506,474.5C 487.5,455.333 469,436.167 450.5,417C 476.721,411.872 503.054,407.206 529.5,403C 543.167,379.142 556.167,354.975 568.5,330.5 Z"/></g>
<g><path style="opacity:1" fill="#c9575c" d="M 2275.5,336.5 C 2205.83,336.5 2136.17,336.5 2066.5,336.5C 2066.5,348.167 2066.5,359.833 2066.5,371.5C 2065.5,359.678 2065.17,347.678 2065.5,335.5C 2136.24,335.167 2206.24,335.5 2275.5,336.5 Z"/></g>
<g><path style="opacity:1" fill="#f36f21" d="M 1864.5,335.5 C 1873.83,335.5 1883.17,335.5 1892.5,335.5C 1892.5,368.5 1892.5,401.5 1892.5,434.5C 1878.16,434.333 1863.83,434.5 1849.5,435C 1804.57,439.271 1781.74,464.104 1781,509.5C 1780.5,575.166 1780.33,640.832 1780.5,706.5C 1748.17,706.5 1715.83,706.5 1683.5,706.5C 1683.33,638.166 1683.5,569.833 1684,501.5C 1691.06,410.777 1739.23,356.943 1828.5,340C 1840.6,338.084 1852.6,336.584 1864.5,335.5 Z"/></g>
<g><path style="opacity:1" fill="#f8b389" d="M 1974.5,336.5 C 1956.83,336.5 1939.17,336.5 1921.5,336.5C 1921.5,459.833 1921.5,583.167 1921.5,706.5C 1920.5,583.001 1920.17,459.334 1920.5,335.5C 1938.67,335.17 1956.67,335.503 1974.5,336.5 Z"/></g>
<g><path style="opacity:1" fill="#f36f21" d="M 1974.5,336.5 C 1998.54,338.782 2013.04,351.782 2018,375.5C 2018.5,485.833 2018.67,596.166 2018.5,706.5C 1986.17,706.5 1953.83,706.5 1921.5,706.5C 1921.5,583.167 1921.5,459.833 1921.5,336.5C 1939.17,336.5 1956.83,336.5 1974.5,336.5 Z"/></g>
<g><path style="opacity:1" fill="#b71f25" d="M 2275.5,336.5 C 2252.86,361.48 2230.19,386.48 2207.5,411.5C 2190.5,411.833 2173.5,412.167 2156.5,412.5C 2137.46,412.627 2118.46,412.127 2099.5,411C 2080.26,404.604 2069.26,391.437 2066.5,371.5C 2066.5,359.833 2066.5,348.167 2066.5,336.5C 2136.17,336.5 2205.83,336.5 2275.5,336.5 Z"/></g>
<g><path style="opacity:1" fill="#f36f21" d="M 2326.5,335.5 C 2340.83,335.5 2355.17,335.5 2369.5,335.5C 2369.67,362.502 2369.5,389.502 2369,416.5C 2304.2,486.302 2239.03,555.802 2173.5,625C 2241.17,625.5 2308.83,625.667 2376.5,625.5C 2376.5,652.5 2376.5,679.5 2376.5,706.5C 2269.17,706.5 2161.83,706.5 2054.5,706.5C 2054.02,681.077 2054.52,655.744 2056,630.5C 2146.37,532.296 2236.54,433.963 2326.5,335.5 Z"/></g>
<g><path style="opacity:1" fill="#f36f21" d="M 2931.5,335.5 C 2940.83,335.5 2950.17,335.5 2959.5,335.5C 2959.5,368.5 2959.5,401.5 2959.5,434.5C 2945.16,434.333 2930.83,434.5 2916.5,435C 2875.57,437.93 2853.07,459.763 2849,500.5C 2848.5,569.166 2848.33,637.833 2848.5,706.5C 2815.83,706.5 2783.17,706.5 2750.5,706.5C 2750.33,640.499 2750.5,574.499 2751,508.5C 2751.87,467.313 2764.54,430.313 2789,397.5C 2809.89,373.291 2835.72,356.458 2866.5,347C 2887.93,340.986 2909.59,337.152 2931.5,335.5 Z"/></g>
<g><path style="opacity:1" fill="#fffefe" d="M 2541.5,408.5 C 2594.09,405.747 2621.75,430.747 2624.5,483.5C 2577.17,483.5 2529.83,483.5 2482.5,483.5C 2482.16,449.305 2497.49,425.472 2528.5,412C 2532.94,410.755 2537.27,409.589 2541.5,408.5 Z"/></g>
<g><path style="opacity:1" fill="#fefefe" d="M -0.5,488.5 C 1.05926,493.633 3.22592,498.633 6,503.5C 18.9198,525.671 31.5864,548.004 44,570.5C 48.8418,577.334 55.3418,581.834 63.5,584C 79.411,582.014 95.411,581.347 111.5,582C 157.529,587.086 193.029,608.919 218,647.5C 245.838,697.537 245.172,747.204 216,796.5C 210.333,804.167 204.667,811.833 199,819.5C 194.937,830.789 196.27,841.455 203,851.5C 216.333,874.833 229.667,898.167 243,921.5C 250.2,929.184 259.033,932.517 269.5,931.5C 269.5,931.833 269.5,932.167 269.5,932.5C 179.5,932.5 89.5,932.5 -0.5,932.5C -0.5,784.5 -0.5,636.5 -0.5,488.5 Z"/></g>
<g><path style="opacity:1" fill="#f9b993" d="M 2643.5,592.5 C 2668.66,591.502 2693.99,591.169 2719.5,591.5C 2719.74,592.791 2719.4,593.791 2718.5,594.5C 2693.86,592.509 2668.86,591.843 2643.5,592.5 Z"/></g>
</svg>
