<svg width="151" height="60" viewBox="0 0 151 60" fill="none" xmlns="http://www.w3.org/2000/svg">
<g clip-path="url(#clip0_48_1818)">
<path d="M17.6085 49.9946L15.2059 53.9771C15.173 54.01 15.173 54.0429 15.173 54.1087L15.1072 59.7368C15.1072 59.8356 15.173 59.9343 15.3047 59.9672C15.3376 59.9672 15.3376 59.9672 15.3705 59.9672C15.4692 59.9672 15.535 59.9343 15.6009 59.8356L20.9656 50.8174C19.8137 50.6529 18.6947 50.3567 17.6085 49.9946Z" fill="#F37021"/>
<path d="M20.9654 50.8832C22.4794 51.1794 24.0592 51.311 25.672 51.311C39.8245 51.311 51.311 39.8245 51.311 25.672C51.311 11.4866 39.8245 0 25.639 0C11.4536 0 0 11.4866 0 25.6391C0 36.994 7.37246 46.6374 17.6083 49.9945" fill="#F37021"/>
<path d="M43.5765 12.7044C43.5436 12.6386 43.4449 12.5728 43.3461 12.5728H8.03071C7.93197 12.5728 7.86614 12.6057 7.80032 12.7044C7.76741 12.7702 7.76741 12.869 7.80032 12.9677L9.57761 15.9628C9.61052 16.0286 9.70926 16.0944 9.808 16.0944H37.8497L17.6083 49.9946C18.6944 50.3566 19.8135 50.6528 20.9654 50.8503L43.5765 12.9348C43.6094 12.9019 43.6094 12.8031 43.5765 12.7044Z" fill="white"/>
<path d="M33.9659 18.1351C33.933 18.0692 33.8342 18.0034 33.7355 18.0034H11.2561C11.1573 18.0034 11.0915 18.0363 11.0257 18.1351C10.9927 18.2009 10.9927 18.2996 11.0257 18.3984L12.6713 21.196C12.7042 21.2618 12.803 21.3276 12.9017 21.3276H28.1732L15.3701 42.7867C15.3372 42.8197 15.3372 42.8855 15.3372 42.9184V48.6452C15.3372 48.744 15.4031 48.8427 15.5347 48.8756C15.5676 48.8756 15.5676 48.8756 15.6005 48.8756C15.6993 48.8756 15.7651 48.8427 15.8309 48.744L33.9988 18.3655C33.9988 18.2996 33.9988 18.2338 33.9659 18.1351Z" fill="white"/>
<path d="M133.363 18.5957H130.829C130.73 18.5957 130.664 18.6286 130.631 18.6944L125.859 25.672L121.086 18.6944C121.054 18.6286 120.955 18.5957 120.889 18.5957H118.355C118.256 18.5957 118.19 18.6615 118.124 18.7274C118.091 18.7932 118.091 18.9248 118.124 18.9907L124.509 28.2392V35.1838C124.509 35.3154 124.608 35.4471 124.773 35.4471H126.945C127.077 35.4471 127.208 35.3483 127.208 35.1838V28.2392L133.593 18.9907C133.659 18.9248 133.659 18.8261 133.593 18.7274C133.56 18.6286 133.462 18.5957 133.363 18.5957Z" fill="#262338"/>
<path d="M149.786 27.6793C149.062 26.9552 147.976 26.4286 146.429 26.0336L143.203 25.1779C141.755 24.8159 141.13 24.1905 141.13 23.1702C141.13 21.3929 143.171 20.7676 144.915 20.7676C146.199 20.7676 147.153 20.9321 148.502 21.8537C148.502 21.8537 149.029 22.2157 149.358 22.5778C149.424 22.6436 149.523 22.6765 149.621 22.6436C149.72 22.6107 149.786 22.512 149.786 22.4132V20.0435C149.786 19.9777 149.753 19.8789 149.687 19.846C149.621 19.7802 147.745 18.332 144.948 18.332H144.915C142.776 18.332 141.064 18.9245 139.945 20.0106C139.089 20.8663 138.596 22.0183 138.596 23.2689C138.596 25.4083 139.912 26.9223 142.348 27.5476L145.573 28.3704C148.042 28.9958 148.371 29.8515 148.371 30.6085C148.371 32.1883 146.791 33.2415 144.487 33.2415C142.743 33.2415 140.998 32.5504 139.978 31.8921L139.122 31.3655C139.056 31.3326 138.958 31.2997 138.859 31.3655C138.793 31.3984 138.727 31.4972 138.727 31.5959L138.826 33.9327C138.826 33.9985 138.859 34.0973 138.958 34.1302L139.089 34.2289C139.945 34.7884 142.052 35.71 144.487 35.71C148.338 35.71 150.905 33.6365 150.905 30.5098C150.872 29.3578 150.51 28.4363 149.786 27.6793Z" fill="#262338"/>
<path d="M73.3297 18.6284H58.1569C58.0582 18.6284 57.9924 18.6942 57.9265 18.7601C57.8936 18.8259 57.8936 18.9246 57.9265 19.0234L59.0127 20.7019C59.0456 20.7678 59.1443 20.8336 59.2101 20.8336H69.4789L61.3166 34.5253C61.2836 34.5582 61.2836 34.5911 61.2836 34.657L61.2178 38.7711C61.2178 38.8698 61.2836 38.9685 61.3824 39.0014C61.4153 39.0014 61.4153 39.0014 61.4482 39.0014C61.5469 39.0014 61.6128 38.9685 61.6786 38.8698L73.5601 19.0234C73.593 18.9575 73.593 18.8588 73.5601 18.7601C73.5272 18.6613 73.4285 18.6284 73.3297 18.6284Z" fill="#262338"/>
<path d="M115.952 35.0519L107.131 17.9373C107.098 17.8386 106.999 17.8057 106.901 17.8057C106.802 17.8057 106.736 17.8715 106.67 17.9373L97.6192 35.0519C97.5863 35.1178 97.5863 35.2165 97.6192 35.2823C97.6521 35.3482 97.7508 35.414 97.8495 35.414H100.252C100.351 35.414 100.417 35.3482 100.483 35.2823L102.852 30.6416L103.576 29.2264L104.498 30.6416C104.531 30.7075 104.63 30.7733 104.695 30.7733H110.817L113.055 35.2823C113.088 35.3811 113.187 35.414 113.286 35.414H115.688C115.787 35.414 115.853 35.3811 115.886 35.2823C115.984 35.2165 115.984 35.1178 115.952 35.0519ZM103.938 28.601L106.868 22.8742L109.731 28.601H103.938Z" fill="#262338"/>
<path d="M90.4116 20.6034C88.0748 18.9248 85.6063 18.5957 82.6442 18.5957H79.7149C79.6162 18.5957 79.5504 18.6615 79.4845 18.7274C79.4516 18.7932 79.4516 18.8919 79.4845 18.9907L80.4061 20.4388H78.9579C78.8921 20.4388 78.8263 20.4717 78.7934 20.5046C78.7605 20.5376 78.7275 20.6034 78.7275 20.6692L78.7605 35.1508C78.7605 35.2825 78.8592 35.4141 79.0238 35.4141H82.6442C85.7709 35.4141 88.1735 35.0521 90.5432 33.3077C92.7155 31.695 93.8345 29.5228 93.8345 27.0214C93.7358 24.3884 92.5838 22.1832 90.4116 20.6034ZM88.733 31.5963C86.9887 32.9457 85.0797 33.2419 82.71 33.2419H81.3606V20.7679H82.71C85.0139 20.7679 86.9228 21.0313 88.6343 22.3149C90.1812 23.4339 91.0698 25.1454 91.0698 27.0214C91.0698 28.7658 90.247 30.4114 88.733 31.5963Z" fill="#262338"/>
<path d="M100.976 44.169H100.219V45.4196H99.5281V41.5688H101.042C101.931 41.5688 102.49 42.0625 102.49 42.8524C102.523 43.7411 101.832 44.169 100.976 44.169ZM101.009 42.1942H100.219V43.5765H101.009C101.536 43.5765 101.832 43.2803 101.832 42.8854C101.832 42.4246 101.503 42.1942 101.009 42.1942Z" fill="#262338"/>
<path d="M106.868 42.1612H104.695V43.1486H106.637V43.741H104.695V44.7613H106.9V45.3537H104.004V41.5029H106.868V42.1612Z" fill="#262338"/>
<path d="M111.015 45.4196L110.06 44.0702H109.205V45.4196H108.513V41.5688H110.225C111.114 41.5688 111.64 42.0296 111.64 42.7866C111.64 43.412 111.245 43.8069 110.719 43.9715L111.772 45.4196H111.015ZM110.192 42.1942H109.205V43.4778H110.192C110.686 43.4778 110.982 43.2145 110.982 42.8195C111.015 42.3917 110.719 42.1942 110.192 42.1942Z" fill="#262338"/>
<path d="M116.182 42.194H113.977V43.2472H115.919V43.8726H113.977V45.4524H113.286V41.6016H116.149V42.194H116.182Z" fill="#262338"/>
<path d="M119.078 45.4854C117.893 45.4854 117.071 44.5967 117.071 43.5106C117.071 42.4245 117.893 41.5029 119.078 41.5029C120.263 41.5029 121.086 42.3916 121.086 43.4777C121.119 44.5638 120.263 45.4854 119.078 45.4854ZM119.078 42.1283C118.321 42.1283 117.795 42.7536 117.795 43.4777C117.795 44.2347 118.354 44.86 119.111 44.86C119.868 44.86 120.395 44.2347 120.395 43.5106C120.395 42.7536 119.868 42.1283 119.078 42.1283Z" fill="#262338"/>
<path d="M124.772 45.4196L123.818 44.0702H122.962V45.4196H122.271V41.5688H123.982C124.871 41.5688 125.397 42.0296 125.397 42.7866C125.397 43.412 125.003 43.8069 124.476 43.9715L125.529 45.4196H124.772ZM123.982 42.1942H122.995V43.4778H123.982C124.476 43.4778 124.772 43.2145 124.772 42.8195C124.772 42.3917 124.476 42.1942 123.982 42.1942Z" fill="#262338"/>
<path d="M128.919 44.4652L127.701 42.655V45.4196H127.043V41.5688H127.767L128.952 43.379L130.137 41.5688H130.861V45.4196H130.17V42.655L128.919 44.4652Z" fill="#262338"/>
<path d="M135.995 45.4194H135.271L134.876 44.4978H133.066L132.671 45.4194H131.98L133.659 41.5356H134.284L135.995 45.4194ZM133.988 42.3585L133.329 43.9054H134.646L133.988 42.3585Z" fill="#262338"/>
<path d="M139.813 41.5688H140.472V45.4196H139.912L137.773 42.6879V45.4196H137.115V41.5688H137.74L139.813 44.2348V41.5688Z" fill="#262338"/>
<path d="M143.862 45.4854C142.743 45.4854 141.887 44.5967 141.887 43.5106C141.887 42.4245 142.71 41.5029 143.862 41.5029C144.586 41.5029 145.014 41.7662 145.376 42.0954L144.948 42.589C144.652 42.2928 144.322 42.0954 143.862 42.0954C143.138 42.0954 142.578 42.6878 142.578 43.4448C142.578 44.2018 143.105 44.8271 143.862 44.8271C144.322 44.8271 144.652 44.6296 144.981 44.3334L145.409 44.7613C145.014 45.2221 144.586 45.4854 143.862 45.4854Z" fill="#262338"/>
<path d="M149.654 42.1612H147.482V43.1486H149.424V43.741H147.482V44.7613H149.687V45.3537H146.791V41.5029H149.654V42.1612Z" fill="#262338"/>
</g>
<defs>
<clipPath id="clip0_48_1818">
<rect width="150.872" height="60" fill="white"/>
</clipPath>
</defs>
</svg>
